<?xml version="1.0" encoding="UTF-8" standalone="no"?>
<svg
   viewBox="0 0 800 600"
   width="100%"
   height="100%"
   version="1.1"
   id="svg12"
   sodipodi:docname="logo-notext.svg"
   inkscape:version="1.4.4 (dcaf3e7d9e, 2026-05-05)"
   xmlns:inkscape="http://www.inkscape.org/namespaces/inkscape"
   xmlns:sodipodi="http://sodipodi.sourceforge.net/DTD/sodipodi-0.dtd"
   xmlns:xlink="http://www.w3.org/1999/xlink"
   xmlns="http://www.w3.org/2000/svg"
   xmlns:svg="http://www.w3.org/2000/svg">
  <sodipodi:namedview
     id="namedview12"
     pagecolor="#ffffff"
     bordercolor="#000000"
     borderopacity="0.25"
     inkscape:showpageshadow="2"
     inkscape:pageopacity="0.0"
     inkscape:pagecheckerboard="0"
     inkscape:deskcolor="#d1d1d1"
     inkscape:zoom="2.0133333"
     inkscape:cx="399.83444"
     inkscape:cy="300"
     inkscape:window-width="2432"
     inkscape:window-height="1418"
     inkscape:window-x="0"
     inkscape:window-y="0"
     inkscape:window-maximized="1"
     inkscape:current-layer="svg12" />
  <defs
     id="defs9">
    <!-- Background Heart Gradient -->
    <linearGradient
       id="grad-heart"
       x1="0%"
       y1="0%"
       x2="0%"
       y2="100%">
      <stop
         offset="0%"
         stop-color="#F9C6D9"
         id="stop1" />
      <stop
         offset="100%"
         stop-color="#EF9DBF"
         id="stop2" />
    </linearGradient>
    <!-- 't' Gradient (Orange) -->
    <linearGradient
       id="grad-t"
       x1="0%"
       y1="0%"
       x2="0%"
       y2="100%">
      <stop
         offset="0%"
         stop-color="#EE5E21"
         id="stop3" />
      <stop
         offset="100%"
         stop-color="#F69B1E"
         id="stop4" />
    </linearGradient>
    <!-- 'h' Gradient (Green) -->
    <linearGradient
       id="grad-h"
       x1="0%"
       y1="0%"
       x2="0%"
       y2="100%">
      <stop
         offset="0%"
         stop-color="#A1D217"
         id="stop5" />
      <stop
         offset="100%"
         stop-color="#46B43F"
         id="stop6" />
    </linearGradient>
    <!-- '2' Gradient (Cyan/Blue) -->
    <linearGradient
       id="grad-2"
       x1="0%"
       y1="0%"
       x2="0%"
       y2="100%">
      <stop
         offset="0%"
         stop-color="#1EC8F6"
         id="stop7" />
      <stop
         offset="100%"
         stop-color="#0080C8"
         id="stop8" />
    </linearGradient>
    <!--
      Grouping the text so we can layer it later to create the thick, fused outlines.
      The '2' is placed first so the 'th' slightly overlaps it, matching the depth
      style of the original logo.
    -->
    <g
       id="logo-text">
      <!-- The Number '2' -->
      <text
         x="400"
         y="450"
         font-family="'Arial Black', 'Impact', 'Segoe UI Black', sans-serif"
         font-size="340"
         font-style="italic"
         font-weight="900"
         fill="url(#grad-2)"
         id="text8">
        2
      </text>
      <!-- The Text 'th' -->
      <text
         x="180"
         y="420"
         font-family="'Arial Black', 'Impact', 'Segoe UI Black', sans-serif"
         font-size="240"
         font-weight="900"
         letter-spacing="-25"
         id="text9"><tspan
           fill="url(#grad-t)"
           id="tspan8">t</tspan><tspan
           fill="url(#grad-h)"
           id="tspan9">h</tspan></text>
    </g>
    <linearGradient
       inkscape:collect="always"
       xlink:href="#grad-2"
       id="linearGradient13"
       x1="499.17233"
       y1="173.25276"
       x2="499.17233"
       y2="379.15497"
       gradientTransform="scale(0.8425666,1.1868498)"
       gradientUnits="userSpaceOnUse" />
    <linearGradient
       inkscape:collect="always"
       xlink:href="#grad-2"
       id="linearGradient15"
       x1="481.78455"
       y1="167.97568"
       x2="481.78455"
       y2="392.12122"
       gradientTransform="scale(0.8542946,1.1705564)"
       gradientUnits="userSpaceOnUse" />
    <linearGradient
       inkscape:collect="always"
       xlink:href="#grad-2"
       id="linearGradient17"
       x1="455.65272"
       y1="158.08074"
       x2="455.65272"
       y2="412.55484"
       gradientTransform="scale(0.87036886,1.1489382)"
       gradientUnits="userSpaceOnUse" />
    <linearGradient
       inkscape:collect="always"
       xlink:href="#grad-2"
       id="linearGradient19"
       x1="455.65272"
       y1="158.08074"
       x2="455.65272"
       y2="412.55484"
       gradientTransform="scale(0.87036886,1.1489382)"
       gradientUnits="userSpaceOnUse" />
  </defs>
  <!-- 1. The Background Heart -->
  <path
     d="M 400 530            C 250 420, 120 290, 160 170            C 180 90, 320 90, 400 150            C 480 90, 620 90, 640 170            C 680 290, 550 420, 400 530 Z"
     fill="url(#grad-heart)"
     id="path9" />
  <!-- 2. Text Outline Layer: Deep Blue Drop Shadow (Slightly Offset) -->
  <g
     id="use9"
     style="stroke:#0a2658;stroke-width:48;stroke-linecap:round;stroke-linejoin:round"
     transform="translate(8,12)">
    <!-- The Number '2' -->
    <text
       x="400"
       y="450"
       font-family="'Arial Black', Impact, 'Segoe UI Black', sans-serif"
       font-size="340px"
       font-style="italic"
       font-weight="900"
       fill="url(#grad-2)"
       id="text18"
       style="fill:url(#linearGradient19)">2</text>
    <!-- The Text 'th' -->
    <text
       x="180"
       y="420"
       font-family="'Arial Black', Impact, 'Segoe UI Black', sans-serif"
       font-size="240px"
       font-weight="900"
       letter-spacing="-25"
       id="text19"><tspan
         fill="url(#grad-t)"
         id="tspan18">t</tspan><tspan
         fill="url(#grad-h)"
         id="tspan19">h</tspan></text>
  </g>
  <!-- 3. Text Outline Layer: Main Medium Blue Outline -->
  <g
     id="use10"
     style="stroke:#0e75bc;stroke-width:48;stroke-linecap:round;stroke-linejoin:round">
    <!-- The Number '2' -->
    <text
       x="400"
       y="450"
       font-family="'Arial Black', Impact, 'Segoe UI Black', sans-serif"
       font-size="340px"
       font-style="italic"
       font-weight="900"
       fill="url(#grad-2)"
       id="text16"
       style="fill:url(#linearGradient17)">2</text>
    <!-- The Text 'th' -->
    <text
       x="180"
       y="420"
       font-family="'Arial Black', Impact, 'Segoe UI Black', sans-serif"
       font-size="240px"
       font-weight="900"
       letter-spacing="-25"
       id="text17"><tspan
         fill="url(#grad-t)"
         id="tspan16">t</tspan><tspan
         fill="url(#grad-h)"
         id="tspan17">h</tspan></text>
  </g>
  <!-- 4. Text Outline Layer: Inner White Outline -->
  <g
     id="use11"
     style="stroke:#ffffff;stroke-width:18;stroke-linecap:round;stroke-linejoin:round">
    <!-- The Number '2' -->
    <text
       x="400"
       y="450"
       font-family="'Arial Black', Impact, 'Segoe UI Black', sans-serif"
       font-size="340px"
       font-style="italic"
       font-weight="900"
       fill="url(#grad-2)"
       id="text14"
       style="fill:url(#linearGradient15)">2</text>
    <!-- The Text 'th' -->
    <text
       x="180"
       y="420"
       font-family="'Arial Black', Impact, 'Segoe UI Black', sans-serif"
       font-size="240px"
       font-weight="900"
       letter-spacing="-25"
       id="text15"><tspan
         fill="url(#grad-t)"
         id="tspan14">t</tspan><tspan
         fill="url(#grad-h)"
         id="tspan15">h</tspan></text>
  </g>
  <!-- 5. Top Text Layer: The actual color gradients -->
  <!-- (Since it has no stroke, it perfectly fills the space inside the white outline) -->
  <g
     id="use12">
    <!-- The Number '2' -->
    <path
       d="m 489.81445,282.49023 -46.65039,-6.97265 q 5.64453,-33.86719 26.23047,-51.79688 20.75195,-18.0957 51.79688,-18.0957 34.0332,0 53.45703,18.42773 19.42383,18.42774 19.42383,46.81641 0,14.44336 -5.97657,29.05273 -5.97656,14.44336 -19.58984,30.38086 -9.79492,11.28907 -32.04102,32.04102 -22.24609,20.58594 -29.55078,28.22266 -7.13867,7.4707 -13.77929,15.9375 H 577.4707 L 568.50586,450 H 420.58594 q 2.32422,-17.92969 10.45898,-34.0332 8.30078,-16.26953 20.58594,-30.21485 12.28516,-13.94531 44.99023,-44.99023 24.57032,-23.57422 31.04493,-30.71289 11.62109,-12.94922 15.9375,-22.41211 4.3164,-9.46289 4.3164,-17.09961 0,-12.28516 -7.30469,-19.92188 -7.13867,-7.63671 -18.26171,-7.63671 -11.28907,0 -19.75586,8.63281 -8.4668,8.46679 -12.78321,30.8789 z"
       id="text12"
       style="font-style:italic;font-weight:900;font-size:340px;font-family:'Arial Black', Impact, 'Segoe UI Black', sans-serif;fill:url(#linearGradient13)"
       aria-label="2" />
    <!-- The Text 'th' -->
    <g
       id="text13"
       style="font-weight:900;font-size:240px;font-family:'Arial Black', Impact, 'Segoe UI Black', sans-serif;letter-spacing:-25"
       aria-label="th">
      <path
         style="fill:url(#grad-t)"
         d="m 251.95312,248.20312 v 47.34375 h 26.25 v 34.80469 h -26.25 v 44.17969 q 0,7.96875 1.52344,10.54687 2.34375,3.98438 8.20313,3.98438 5.27343,0 14.76562,-3.04688 l 3.51563,32.92969 q -17.69532,3.86719 -33.04688,3.86719 -17.8125,0 -26.25,-4.57031 -8.4375,-4.57032 -12.53906,-13.82813 -3.98438,-9.375 -3.98438,-30.23437 V 330.35156 H 186.5625 v -34.80469 h 17.57812 v -22.85156 z"
         id="path13" />
      <path
         style="fill:url(#grad-h)"
         d="m 275.9375,248.20312 h 47.69531 v 63.28125 q 9.72656,-10.07812 19.33594,-14.41406 9.60937,-4.33594 22.73437,-4.33594 19.45313,0 30.58594,11.83594 11.25,11.83594 11.25,36.32813 V 420 h -47.92969 v -68.4375 q 0,-11.71875 -4.33593,-16.52344 -4.33594,-4.92187 -12.1875,-4.92187 -8.67188,0 -14.0625,6.5625 -5.39063,6.5625 -5.39063,23.55468 V 420 H 275.9375 Z"
         id="path14" />
    </g>
  </g>
</svg>
